<svg xmlns="http://www.w3.org/2000/svg" width="293.375" height="67" viewBox="0 0 293.375 67">
  <g id="Grupo_1" data-name="Grupo 1" transform="translate(-104.625 -182)">
    <path id="Caminho_4" data-name="Caminho 4" d="M4.648-27.562l-.492,4.047q0,3.309.738,11.047T6.4-3.555a4.92,4.92,0,0,0,4.416,2.27A5.341,5.341,0,0,0,15.121-2.9a5.474,5.474,0,0,0,1.285-.191l.273.3q0,2.68-4.266,3.5A12.348,12.348,0,0,1,10.131.9,5.379,5.379,0,0,1,7.137-.355,7.362,7.362,0,0,1,4.7-3.145Q3.992-4.676,3.309-12.66T2.625-26.715a37.756,37.756,0,0,1,.355-7.164,9.221,9.221,0,0,1-.191-1.8A6.258,6.258,0,0,1,5.2-40.92,9.323,9.323,0,0,1,11.1-42.793a4.518,4.518,0,0,1,2.092.6q1.135.6,1.135,1.477,0,.629-.875.629a1.3,1.3,0,0,1-.684-.342,1.3,1.3,0,0,0-.725-.342,1.951,1.951,0,0,0-.615.109,4.211,4.211,0,0,0-1.34-.219,6,6,0,0,0-1.654.287,5.521,5.521,0,0,0-1.613.738,3.836,3.836,0,0,0-1.094,1.217,8.434,8.434,0,0,0-.7,1.463,8.771,8.771,0,0,0-.383,1.791,37.808,37.808,0,0,0-.164,3.855ZM29.066-8.34l-1.477.055a4.534,4.534,0,0,0-1.75-.328,4.456,4.456,0,0,0-1.039.055.284.284,0,0,0-.109.191.848.848,0,0,1-.055.191l-.109,1.121a28.117,28.117,0,0,1-.52,3.418Q23.242.273,22.395.273a1.21,1.21,0,0,1-.738-.3.844.844,0,0,1-.383-.656A47.994,47.994,0,0,0,22.75-7.055q.766-4.266.957-5.318t.711-4.252l.684-4.211q.164-1.012.889-4.375t.875-4.4q.15-1.039.342-2.816a26.138,26.138,0,0,1,.738-4.867l.766.055a1.378,1.378,0,0,0,1.012-.328,1.166,1.166,0,0,1,.684.232.72.72,0,0,1,.328.615q0,2.68.684,10.363T32.5-16.42q.4,2.256.916,4.43a15.557,15.557,0,0,1,.52,3.322L33.66-7.9A21.693,21.693,0,0,0,34.125-4.2,21.628,21.628,0,0,1,34.59-.752q0,1-.437,1.244Q33,.492,32.744.164a1.7,1.7,0,0,1-.26-1.053q0-.725-.1-1.777T32.2-4.348q-.1-.629-.328-1.982t-.287-1.736A10.212,10.212,0,0,0,29.066-8.34ZM25.129-11.1q0,.574,1.34.957a16.809,16.809,0,0,0,4.539.574h.574a8.138,8.138,0,0,1-.355-2.516v-1.285a85.356,85.356,0,0,0-.861-10.117,97.709,97.709,0,0,1-.916-9.9q-2.926,14.465-3.623,17.869A29.293,29.293,0,0,0,25.129-11.1ZM42.41-1.285l5.277.164h.164a.771.771,0,0,1,.574.314.977.977,0,0,1,.273.643q0,.629-.9.711Q46.348.492,43.148.492l.109.055L41.18.738q-.793,0-.93-1.285a10.808,10.808,0,0,0,.109-1.859l.328-29.859.273-3.691q0-.383.41-.383l.93.219-.055,4.43L42.3-19.5q-.164,4.594-.164,4.7l.109,4.758-.164.465.055-.055-.055.438a1.758,1.758,0,0,0,.164.793l-.164,5.359v.355a7.118,7.118,0,0,0,.055,1.135Q42.191-1.285,42.41-1.285ZM55.617-22.613,55.4-11.32a18.273,18.273,0,0,0,.9,6.781,5.581,5.581,0,0,0,2.652,3.117,5.142,5.142,0,0,0,2.119.465,2.472,2.472,0,0,0,1.654-.492q.848,0,.848.6,0,.438-.752.971A6.615,6.615,0,0,1,61.441.9H59.582A8.628,8.628,0,0,0,58.27.41a6.058,6.058,0,0,1-1.764-.889A5.554,5.554,0,0,1,54.988-2.42a10.454,10.454,0,0,1-1.012-3.158,40.465,40.465,0,0,1-.492-6.617v-6.4a62.473,62.473,0,0,1,.547-10.227q1.094-5.605,2.98-7.082a6.194,6.194,0,0,1,1.518-.779,11.946,11.946,0,0,0,1.408-.615H62.18a.587.587,0,0,1,.15.027l.15.041.15.041.137.041a1.054,1.054,0,0,1,.123.055.46.46,0,0,1,.109.068.787.787,0,0,1,.246.574l-.738.82H60.156a2.486,2.486,0,0,0-2,1.08,7.773,7.773,0,0,0-1.3,2.557,22.537,22.537,0,0,0-.725,3.418,40.775,40.775,0,0,0-.41,5.66Zm24.5-2.543.055,1.121q-.109,1.422-.15,3.828t-.082,4.566q-.041,2.16-.15,4.676a38.271,38.271,0,0,1-.437,4.512Q78.586-1.7,76.863-.109a3.381,3.381,0,0,1-4.348.355,6.13,6.13,0,0,1-1.791-1.5Q70-2.16,69.563-7.068t-.52-10.35q-.246-16.352-.52-18.648l.355-.793q1.285.164,1.285,3.09l.164,14.848.6,11.867q0,6.371,4.211,6.371,2.6,0,3.281-11.73.055-.793.26-7.574t.205-16.352l-.109-1.012q0-.629.807-.629t.957.369a17.521,17.521,0,0,1,.15,3.309,19.145,19.145,0,0,1-.355,4.334.847.847,0,0,1,.055.355ZM88.84-1.285l5.277.164h.164a.771.771,0,0,1,.574.314.977.977,0,0,1,.273.643q0,.629-.9.711Q92.777.492,89.578.492l.109.055L87.609.738q-.793,0-.93-1.285a10.809,10.809,0,0,0,.109-1.859l.328-29.859.273-3.691q0-.383.41-.383l.93.219-.055,4.43.055,12.2q-.164,4.594-.164,4.7l.109,4.758-.164.465.055-.055-.055.438a1.758,1.758,0,0,0,.164.793l-.164,5.359v.355a7.117,7.117,0,0,0,.055,1.135Q88.621-1.285,88.84-1.285ZM107.324-8.34l-1.477.055a4.534,4.534,0,0,0-1.75-.328,4.456,4.456,0,0,0-1.039.055.284.284,0,0,0-.109.191.848.848,0,0,1-.055.191l-.109,1.121a28.117,28.117,0,0,1-.52,3.418Q101.5.273,100.652.273a1.21,1.21,0,0,1-.738-.3.844.844,0,0,1-.383-.656,47.993,47.993,0,0,0,1.477-6.371q.766-4.266.957-5.318t.711-4.252l.684-4.211q.164-1.012.889-4.375t.875-4.4q.15-1.039.342-2.816A26.138,26.138,0,0,1,106.2-37.3l.766.055a1.378,1.378,0,0,0,1.012-.328,1.166,1.166,0,0,1,.684.232.72.72,0,0,1,.328.615q0,2.68.684,10.363t1.08,9.939q.4,2.256.916,4.43a15.558,15.558,0,0,1,.52,3.322l-.273.766a21.692,21.692,0,0,0,.465,3.705,21.627,21.627,0,0,1,.465,3.445q0,1-.437,1.244-1.148,0-1.408-.328a1.7,1.7,0,0,1-.26-1.053q0-.725-.1-1.777t-.191-1.682q-.1-.629-.328-1.982t-.287-1.736A10.212,10.212,0,0,0,107.324-8.34ZM103.387-11.1q0,.574,1.34.957a16.809,16.809,0,0,0,4.539.574h.574a8.138,8.138,0,0,1-.355-2.516v-1.285a85.356,85.356,0,0,0-.861-10.117,97.71,97.71,0,0,1-.916-9.9q-2.926,14.465-3.623,17.869A29.293,29.293,0,0,0,103.387-11.1Zm26.824-8.5a7.583,7.583,0,0,0,.273,2.707q-.355,1.832-.643,4.949a35.517,35.517,0,0,1-.684,4.758,12.8,12.8,0,0,1-1,2.816A11.545,11.545,0,0,1,123.266.273h-3.883q-.492,0-.492-1.5-.219-4.348-.219-9.734l.109-13.234q0-5.824-.219-10.527a1.191,1.191,0,0,1-.465-.957,1.269,1.269,0,0,1,.465-.984,1.349,1.349,0,0,1,.848-.41,1.347,1.347,0,0,1,.861.451,3.639,3.639,0,0,0,.725.574,5.261,5.261,0,0,0,1.176.273,5.564,5.564,0,0,1,1.545.451,10.307,10.307,0,0,1,2.01,1.627,23.972,23.972,0,0,0,1.887,1.682l-.055.109a4.821,4.821,0,0,0,.834,1.436,8.519,8.519,0,0,1,.971,1.572,19.79,19.79,0,0,1,.9,6.672Zm-1.641,3.418-.055-2.023-.273-5.633A15.96,15.96,0,0,0,126.3-30.57a8.272,8.272,0,0,0-2.256-2.816,4.763,4.763,0,0,0-3.021-1.121q-.629,0-.629,11.2t.629,20.057l-.055,1.066.219.109.164.738h1.723a3.858,3.858,0,0,1,.834-.848q.506-.383.7-.547Q128.57-6.316,128.57-16.187Zm20.1-5.441.109,6.672q0,12.605-4.047,15.34a3.792,3.792,0,0,1-2.215.684q-6.562,0-6.562-20.617a76.1,76.1,0,0,1,1.094-13.809q.82-4.266,2.488-4.266a1.083,1.083,0,0,1,.725.3,2.785,2.785,0,0,0,.93.506,11.552,11.552,0,0,0,1.613.4l1.463.273q1.121.191,2.16,2.16Q148.777-30,148.777-21.9ZM137.7-19.605l.109,4.43a41.69,41.69,0,0,0,1.2,10.145,10.224,10.224,0,0,0,1.3,3.145,2.4,2.4,0,0,0,1.969,1.34,2.684,2.684,0,0,0,1.941-.82,5.686,5.686,0,0,0,1.326-2.283,27.689,27.689,0,0,0,.82-2.98,24.606,24.606,0,0,0,.465-3.4q.219-3.008.219-5.359l-.629-13.234-.219-.437.109-.273a6.821,6.821,0,0,0-1.367-4.238,4.067,4.067,0,0,0-3.336-1.8h-2.352q-.465,0-.82,4.99t-.465,5.537Zm16.871-15.613q0-2.133,1.23-2.133a7.136,7.136,0,0,1,4.512,1.381,4.828,4.828,0,0,1,1.777,4.061v4.074q0,2.16-2.187,6.18a9.859,9.859,0,0,0-.738,1.463q0,.123,2.119,8.859t2.229,9.01q.109.273.547,1.148a3.49,3.49,0,0,1,.438,1.5.556.556,0,0,1-.629.629l-.82-.273q-1.312-1.477-2.871-10.937-1.5-9.133-2.57-9.133h-.219q-1.23,0-1.23.793,0,3.062.355,10.186a74.51,74.51,0,0,0,.6,7.971l-.41.93h-.82l-.41-.437Q154.574-24.2,154.574-35.219Zm1.586.766.219,13.563.109.109a2.409,2.409,0,0,0,1.914-1.107,7.786,7.786,0,0,0,1.285-2.693,20.611,20.611,0,0,0,.9-4.977,22.019,22.019,0,0,0-.109-2.557,8.216,8.216,0,0,0-.465-1.818,3.05,3.05,0,0,0-3.2-1.969q-.328,0-.492.52A3.128,3.128,0,0,0,156.16-34.453Zm20.7,26.113-1.477.055a4.534,4.534,0,0,0-1.75-.328,4.456,4.456,0,0,0-1.039.055.284.284,0,0,0-.109.191.848.848,0,0,1-.055.191l-.109,1.121a28.118,28.118,0,0,1-.52,3.418q-.766,3.91-1.613,3.91a1.21,1.21,0,0,1-.738-.3.844.844,0,0,1-.383-.656,48,48,0,0,0,1.477-6.371q.766-4.266.957-5.318t.711-4.252l.684-4.211q.164-1.012.889-4.375t.875-4.4q.15-1.039.342-2.816a26.137,26.137,0,0,1,.738-4.867l.766.055a1.378,1.378,0,0,0,1.012-.328,1.166,1.166,0,0,1,.684.232.72.72,0,0,1,.328.615q0,2.68.684,10.363t1.08,9.939q.4,2.256.916,4.43a15.557,15.557,0,0,1,.52,3.322l-.273.766a21.693,21.693,0,0,0,.465,3.705,21.628,21.628,0,0,1,.465,3.445q0,1-.437,1.244-1.148,0-1.408-.328a1.7,1.7,0,0,1-.26-1.053q0-.725-.1-1.777t-.191-1.682q-.1-.629-.328-1.982t-.287-1.736A10.212,10.212,0,0,0,176.859-8.34ZM172.922-11.1q0,.574,1.34.957a16.809,16.809,0,0,0,4.539.574h.574a8.137,8.137,0,0,1-.355-2.516v-1.285a85.356,85.356,0,0,0-.861-10.117,97.708,97.708,0,0,1-.916-9.9q-2.926,14.465-3.623,17.869A29.293,29.293,0,0,0,172.922-11.1Zm30.871-7.82-.055.219q0,.027,1.285,4.32a22.61,22.61,0,0,1,.848,5.141,14.71,14.71,0,0,1-.424,3.527,15.379,15.379,0,0,1-1.23,3.309A7.24,7.24,0,0,1,202,.205a4.64,4.64,0,0,1-2.707,1.025q-1.3,0-1.846-.055a2.72,2.72,0,0,1-2.27-1.34q0-.684.588-.684a4.373,4.373,0,0,1,1.586.424,4.864,4.864,0,0,0,1.9.424,2.859,2.859,0,0,0,1.928-1.039,6.9,6.9,0,0,0,1.572-2.57,17.685,17.685,0,0,0,1.094-5.838,19.738,19.738,0,0,0-.82-5.537,29.165,29.165,0,0,0-2.01-5.141q-1.189-2.324-2.365-4.648a23.073,23.073,0,0,1-2.816-10.445,8.741,8.741,0,0,1,2.461-6.508,4.4,4.4,0,0,1,3.145-1.285,3.521,3.521,0,0,1,1.477.451,2.105,2.105,0,0,1,1.094.943l-.328.629a2.508,2.508,0,0,1-1.832-.574,3.05,3.05,0,0,0-2.3,1.012,6.693,6.693,0,0,0-1.8,4.867,15.922,15.922,0,0,0,.355,3.678q.355,1.463.547,2.229a14.181,14.181,0,0,0,.684,1.941q.492,1.176.725,1.75t.9,1.887q.67,1.313.875,1.7t1.012,1.846Q203.656-19.2,203.793-18.922ZM214.02-45.773q-1.012,0-1.012-.82,0-.328,3.322-2.885t3.623-2.83q1.23,0,1.23.875,0,.027-.164.848A31.754,31.754,0,0,0,214.02-45.773Zm-.027,44.105,3.363-.191q2.625,0,2.625.9A2.282,2.282,0,0,1,218.313.1a12.249,12.249,0,0,1-2.324.232h-1.312q-2.516,0-2.9-.4a1.194,1.194,0,0,1-.383-.834l.52-2.078V-3.09a12.873,12.873,0,0,1-.219-2.461l.273-5.715-.328-11.977.273-11.129a18.556,18.556,0,0,0-.355-2.994,22.17,22.17,0,0,1-.383-2.912l1.012-1.559,3.91-.492.191.164q1.313,0,1.518.342a1.386,1.386,0,0,1,.205.725q0,1.066-2.023,1.066l-1.5-.109q-1.23,0-1.23.656l.438,9.516-.273,7-.109.109.328.191,3.09-.574a1.036,1.036,0,0,1,.656.314.879.879,0,0,1,.355.643q0,1.121-.848,1.121l-1.285-.055q-2.133,0-2.133,1.066l.41,4.7-.191.328V-3.746a2.662,2.662,0,0,1,.3,1.559Zm12.8-25.895-.492,4.047q0,3.309.738,11.047t1.5,8.914a4.92,4.92,0,0,0,4.416,2.27A5.34,5.34,0,0,0,237.262-2.9a5.474,5.474,0,0,0,1.285-.191l.273.3q0,2.68-4.266,3.5A12.348,12.348,0,0,1,232.271.9a5.379,5.379,0,0,1-2.994-1.258,7.362,7.362,0,0,1-2.434-2.789q-.711-1.531-1.395-9.516t-.684-14.055a37.756,37.756,0,0,1,.355-7.164,9.22,9.22,0,0,1-.191-1.8,6.258,6.258,0,0,1,2.406-5.236,9.324,9.324,0,0,1,5.906-1.873,4.518,4.518,0,0,1,2.092.6q1.135.6,1.135,1.477,0,.629-.875.629a1.3,1.3,0,0,1-.684-.342,1.3,1.3,0,0,0-.725-.342,1.951,1.951,0,0,0-.615.109,4.211,4.211,0,0,0-1.34-.219,6,6,0,0,0-1.654.287,5.521,5.521,0,0,0-1.613.738,3.836,3.836,0,0,0-1.094,1.217,8.434,8.434,0,0,0-.7,1.463,8.771,8.771,0,0,0-.383,1.791,37.808,37.808,0,0,0-.164,3.855Zm31.527,15.914.055,3.527q0,4.73-1.23,6.973a4.493,4.493,0,0,1-1.5,1.572,4.575,4.575,0,0,1-2.543.643,5.249,5.249,0,0,1-2.871-.834A5.914,5.914,0,0,1,248.2-1.859a15.6,15.6,0,0,1-1.244-2.926A20,20,0,0,1,246.2-7.93a19.64,19.64,0,0,0-1.23-5q0-4.457-.561-13.33t-.561-13.33l-.383-1.176a1.217,1.217,0,0,1,.287-.752.835.835,0,0,1,.67-.369q1.395,0,1.395,4.1l.492,18.922a2.758,2.758,0,0,1,.273,1.34,44.073,44.073,0,0,0,.52,4.977A8.662,8.662,0,0,0,247-11.129a10.611,10.611,0,0,0,.533,2.57A22.441,22.441,0,0,0,248.924-5,10.9,10.9,0,0,0,251.07-2a3.564,3.564,0,0,0,2.3,1.258,3.9,3.9,0,0,0,1.5-.219,2.7,2.7,0,0,0,.766-.479,1.939,1.939,0,0,0,.451-.861,8.939,8.939,0,0,0,.232-.916q.055-.314.109-1.121t.041-.984q-.014-.178-.014-.506l.164-1.859v-6.371l-.383-3.363-.328-10.035v-.711l-.246-.328a20.833,20.833,0,0,0,.246-3.2l-.52-9.516a.735.735,0,0,1,.4-.67,1.625,1.625,0,0,1,.834-.232l.957.9-.164.438.164.438-.383,3.363.547,10.09.273,9.734.191.055a9.128,9.128,0,0,0-.055,1.176l.164,3.938.164.164ZM269.5,0l-1.75-.055a1.423,1.423,0,0,0-.766.342,1.477,1.477,0,0,1-.848.342,1.185,1.185,0,0,1-.779-.355,1.075,1.075,0,0,1-.4-.82l.328-2.543-.547-15.887-.574-23.406q0-.574.738-.574,1.066,0,1.066,1.012,0,12.934.273,16.393t.273,4.279q0,.82-.109,2.188l.164.219q-.109,1.477-.109,2.994t.287,5.811q.287,4.293.342,6.1a2.118,2.118,0,0,0-.219,1.121,1.59,1.59,0,0,0,.26,1.066,1.578,1.578,0,0,0,1.107.273,1.465,1.465,0,0,0,1.148-.355h2.078q.766.383.766.875,0,1.094-.766,1.094a3.687,3.687,0,0,1-.848-.219A3.638,3.638,0,0,1,269.5,0Zm21-16.9-.52,7.219.109.219a15.17,15.17,0,0,0-.437,3.391,8.793,8.793,0,0,1-.6,3.1A8.6,8.6,0,0,1,287.26-.1,3.485,3.485,0,0,1,284.7,1.176,3.772,3.772,0,0,1,282.16.137a8.262,8.262,0,0,1-1.955-2.666,21.9,21.9,0,0,1-1.367-3.855,42.091,42.091,0,0,1-.916-4.375q-.328-2.146-.547-4.443-.328-3.828-.328-6.631t.246-6.385q.246-3.582.273-4.621t.055-1.832q.027-.793.137-1.9a17.823,17.823,0,0,1,.287-1.941,10.192,10.192,0,0,1,.533-1.709,4.867,4.867,0,0,1,.875-1.449,4.086,4.086,0,0,1,3.213-1.285,5.124,5.124,0,0,1,3.4,1.121q.191.3,1,1.34a8.935,8.935,0,0,1,1.2,1.982,24.179,24.179,0,0,1,.889,4.635A124.039,124.039,0,0,1,290.5-16.9Zm-7.738-24.609q-4.129,0-4.129,16.6v2.188a64.293,64.293,0,0,0,.588,8.354q.588,4.471,1.23,7.26a16.712,16.712,0,0,0,1.8,4.758q1.162,1.969,2.584,1.969,1.914,0,2.789-3.9a42.563,42.563,0,0,0,1.039-6.932q.191-4.156.191-5.414v-1.34q0-1.039-.014-1.764t-.041-2.379q-.027-1.654-.109-2.939t-.219-3.117q-.137-1.832-.383-3.268t-.561-3.062a16.782,16.782,0,0,0-.766-2.8,16.135,16.135,0,0,0-1.025-2.187A3.434,3.434,0,0,0,282.762-41.508Z" transform="translate(102 239)" fill="#fff"/>
    <g id="Retângulo_3" data-name="Retângulo 3" transform="translate(291 182)" fill="none" stroke="#fff" stroke-width="1">
      <rect width="107" height="67" rx="10" stroke="none"/>
      <rect x="0.5" y="0.5" width="106" height="66" rx="9.5" fill="none"/>
    </g>
  </g>
</svg>
